<svg xmlns="http://www.w3.org/2000/svg" viewBox="0 0 512 512" fill="none">
  <!-- Squircle background: coral -> gold brand gradient -->
  <rect width="512" height="512" rx="116" fill="url(#brand)"/>

  <!-- Soft top highlight for playful depth -->
  <rect width="512" height="512" rx="116" fill="url(#sheen)"/>

  <!-- White speech bubble = language / conversation -->
  <path
    d="M150 120h212a64 64 0 0 1 64 64v140a64 64 0 0 1-64 64H252l-66 56a14 14 0 0 1-23-11v-45h-13a64 64 0 0 1-64-64V184a64 64 0 0 1 64-64Z"
    fill="#FFFFFF"/>

  <!-- "P" monogram inside the bubble (coral) -->
  <path
    d="M186 176h70a62 62 0 0 1 0 124h-36v52a16 16 0 0 1-34 0V176Zm34 34v56h36a28 28 0 0 0 0-56h-36Z"
    fill="url(#letter)"/>

  <!-- Bookmark ribbon (grape) = vocabulary handbook, hanging from top-right -->
  <path
    d="M330 120h40v94a8 8 0 0 1-12.9 6.3L350 211l-7.1 9.3A8 8 0 0 1 330 214V120Z"
    fill="url(#ribbon)"/>

  <defs>
    <linearGradient id="brand" x1="0" y1="0" x2="1" y2="1">
      <stop offset="0%" stop-color="#FF6B4A"/>
      <stop offset="55%" stop-color="#FF8A3D"/>
      <stop offset="100%" stop-color="#FFB627"/>
    </linearGradient>
    <linearGradient id="sheen" x1="0.5" y1="0" x2="0.5" y2="1">
      <stop offset="0%" stop-color="#FFFFFF" stop-opacity="0.22"/>
      <stop offset="40%" stop-color="#FFFFFF" stop-opacity="0"/>
    </linearGradient>
    <linearGradient id="letter" x1="0" y1="0" x2="1" y2="1">
      <stop offset="0%" stop-color="#FF6B4A"/>
      <stop offset="100%" stop-color="#FF8A3D"/>
    </linearGradient>
    <linearGradient id="ribbon" x1="0" y1="0" x2="0" y2="1">
      <stop offset="0%" stop-color="#7C5CFC"/>
      <stop offset="100%" stop-color="#9B7BFF"/>
    </linearGradient>
  </defs>
</svg>
